<?xml version="1.0" encoding="UTF-8" standalone="no"?>
<!-- Created with Inkscape (http://www.inkscape.org/) -->

<svg
   width="33.700268mm"
   height="33.699753mm"
   viewBox="0 0 33.700268 33.699753"
   version="1.1"
   id="svg1"
   inkscape:version="1.4.3 (fcd0343856, 2026-01-01)"
   sodipodi:docname="profile.svg"
   xmlns:inkscape="http://www.inkscape.org/namespaces/inkscape"
   xmlns:sodipodi="http://sodipodi.sourceforge.net/DTD/sodipodi-0.dtd"
   xmlns="http://www.w3.org/2000/svg"
   xmlns:svg="http://www.w3.org/2000/svg">
  <sodipodi:namedview
     id="namedview1"
     pagecolor="#ffffff"
     bordercolor="#000000"
     borderopacity="0.25"
     inkscape:showpageshadow="2"
     inkscape:pageopacity="0.0"
     inkscape:pagecheckerboard="0"
     inkscape:deskcolor="#d1d1d1"
     inkscape:document-units="mm"
     inkscape:zoom="3.139562"
     inkscape:cx="30.258998"
     inkscape:cy="47.299591"
     inkscape:window-width="1440"
     inkscape:window-height="831"
     inkscape:window-x="0"
     inkscape:window-y="0"
     inkscape:window-maximized="1"
     inkscape:current-layer="layer1" />
  <defs
     id="defs1" />
  <g
     inkscape:label="Layer 1"
     inkscape:groupmode="layer"
     id="layer1"
     transform="translate(-52.439176,-48.149516)">
    <path
       id="path1"
       style="fill:#000000;stroke-width:0.139578"
       d="M 69.289311,48.149516 A 16.85,16.85 0 0 0 52.439176,64.999133 16.85,16.85 0 0 0 69.289311,81.849268 16.85,16.85 0 0 0 86.139445,64.999133 16.85,16.85 0 0 0 69.289311,48.149516 Z m 0,2.599841 A 14.25,14.25 0 0 1 83.539604,64.999133 14.25,14.25 0 0 1 69.289311,79.249426 14.25,14.25 0 0 1 55.039535,64.999133 14.25,14.25 0 0 1 69.289311,50.749357 Z" />
  </g>
</svg>
