<svg xmlns="http://www.w3.org/2000/svg" xmlns:xlink="http://www.w3.org/1999/xlink" width="100.0" height="100.0" viewBox="-11.502 -11.502 23.004 23.004" preserveAspectRatio="xMinYMin meet"><g transform="matrix(1,0,0,-1,0,0.0)"><path fill-rule="evenodd" fill="#66cc99" stroke="#555555" stroke-width="0.46008000000000004" opacity="0.6" d="M 10.64919807458689,-0.1306918827429172 L 10.646792419114576,-0.2613640837690159 L 10.642783395865923,-0.39199692432547156 L 10.637171608585087,-0.5225707315870018 L 10.62995790238659,-0.6530658416185213 L 10.62114336362805,-0.7834626023364581 L 10.610729319746586,-0.9137413764682849 L 10.598717339058897,-1.0438825445098205 L 10.585109230525092,-1.1738665076798547 L 10.569907043476261,-1.3036736908716526 L 10.553113067305857,-1.4332845456008938 L 10.534729831124919,-1.5626795529496027 L 10.514760103381192,-1.6918392265056243 L 10.493206891442224,-1.820744115297208 L 10.470073441142453,-1.9493748067222512 L 10.445363236294405,-2.077711929471766 L 10.419079998164035,-2.2057361564471276 L 10.39122768491033,-2.3334282076706634 L 10.361810490989216,-2.4607688531891476 L 10.330832846521893,-2.5877389159697604 L 10.298299416627675,-2.7143192747880804 L 10.264215100721435,-2.840490867107668 L 10.228585031775776,-2.9662346919508153 L 10.191414575548023,-3.091531812760024 L 10.152709329772165,-3.216363360249779 L 10.112475123315841,-3.3407105352481947 L 10.070718015302552,-3.4645546115281003 L 10.027444294199173,-3.5878769386271436 L 9.982660476868924,-3.7106589446564784 L 9.936373307589971,-3.8328821390976233 L 9.888589757039746,-3.95452811558707 L 9.839317021245204,-4.075578554688207 L 9.788562520499116,-4.196015226650163 L 9.736333898242602,-4.315819994153142 L 9.682639019914063,-4.434974815039836 L 9.627485971764672,-4.553461745032505 L 9.57088305964061,-4.671262940435319 L 9.512838807732239,-4.78836066082156 L 9.453361957290396,-4.904737271705256 L 9.392461465309982,-5.020375247196875 L 9.33014650318108,-5.135257172642657 L 9.266426455307778,-5.2493657472472 L 9.201310917694899,-5.362683786678892 L 9.134809696502899,-5.475194225657811 L 9.066932806571074,-5.586880120525694 L 8.997690469909381,-5.697724651797585 L 8.927093114159026,-5.807711126694795 L 8.855151371022107,-5.916822981658763 L 8.78187607466052,-6.02504378484548 L 8.707278260064367,-6.132357238600053 L 8.631369161390134,-6.238747181911074 L 8.554160210268869,-6.344197592844416 L 8.47566303408461,-6.4486925909560675 L 8.395889454223358,-6.552216439683676 L 8.314851484292806,-6.654753548716415 L 8.23256132831315,-6.756288476342824 L 8.149031378879188,-6.856805931776279 L 8.064274215294061,-6.956290777457722 L 7.978302601674843,-7.05472803133533 L 7.891129485030315,-7.152102869120745 L 7.802767993311197,-7.248400626521575 L 7.713231433433124,-7.343606801449762 L 7.622533289272669,-7.437707056205562 L 7.530687219636732,-7.5306872196367305 L 7.437707056205562,-7.622533289272669 L 7.343606801449763,-7.713231433433123 L 7.248400626521576,-7.802767993311197 L 7.152102869120745,-7.891129485030315 L 7.05472803133533,-7.978302601674842 L 6.956290777457722,-8.06427421529406 L 6.85680593177628,-8.149031378879188 L 6.756288476342824,-8.23256132831315 L 6.654753548716416,-8.314851484292806 L 6.552216439683676,-8.395889454223356 L 6.4486925909560675,-8.47566303408461 L 6.3441975928444165,-8.554160210268869 L 6.238747181911074,-8.631369161390134 L 6.132357238600053,-8.707278260064367 L 6.025043784845481,-8.78187607466052 L 5.916822981658765,-8.855151371022107 L 5.807711126694795,-8.927093114159025 L 5.697724651797586,-8.99769046990938 L 5.586880120525693,-9.066932806571074 L 5.475194225657811,-9.134809696502899 L 5.362683786678892,-9.201310917694899 L 5.249365747247201,-9.266426455307776 L 5.135257172642659,-9.33014650318108 L 5.020375247196877,-9.39246146530998 L 4.904737271705256,-9.453361957290396 L 4.78836066082156,-9.512838807732239 L 4.67126294043532,-9.57088305964061 L 4.5534617450325054,-9.627485971764672 L 4.434974815039838,-9.682639019914063 L 4.315819994153142,-9.736333898242602 L 4.196015226650163,-9.788562520499116 L 4.075578554688207,-9.839317021245204 L 3.9545281155870704,-9.888589757039744 L 3.832882139097625,-9.93637330758997 L 3.7106589446564775,-9.982660476868924 L 3.5878769386271436,-10.027444294199173 L 3.4645546115281007,-10.070718015302552 L 3.340710535248195,-10.112475123315841 L 3.2163633602497805,-10.152709329772163 L 3.091531812760024,-10.191414575548025 L 2.9662346919508153,-10.228585031775776 L 2.8404908671076683,-10.264215100721435 L 2.714319274788081,-10.298299416627675 L 2.5877389159697617,-10.330832846521893 L 2.460768853189149,-10.361810490989216 L 2.333428207670663,-10.39122768491033 L 2.2057361564471276,-10.419079998164035 L 2.077711929471767,-10.445363236294405 L 1.9493748067222523,-10.470073441142453 L 1.8207441152972095,-10.493206891442224 L 1.691839226505624,-10.514760103381192 L 1.5626795529496027,-10.534729831124919 L 1.4332845456008942,-10.553113067305857 L 1.3036736908716535,-10.569907043476261 L 1.173866507679856,-10.585109230525092 L 1.0438825445098223,-10.598717339058897 L 0.9137413764682848,-10.610729319746586 L 0.7834626023364584,-10.62114336362805 L 0.6530658416185221,-10.62995790238659 L 0.5225707315870031,-10.637171608585087 L 0.3919969243254733,-10.642783395865923 L 0.2613640837690156,-10.646792419114576 L 0.1306918827429174,-10.64919807458689 L 0.0,-10.65 L -0.13069188274291613,-10.64919807458689 L -0.2613640837690143,-10.646792419114576 L -0.39199692432547195,-10.642783395865923 L -0.5225707315870018,-10.637171608585087 L -0.6530658416185209,-10.62995790238659 L -0.783462602336457,-10.62114336362805 L -0.9137413764682835,-10.610729319746586 L -1.043882544509821,-10.598717339058897 L -1.1738665076798547,-10.585109230525092 L -1.3036736908716522,-10.569907043476261 L -1.4332845456008931,-10.553113067305857 L -1.5626795529496016,-10.534729831124919 L -1.6918392265056226,-10.514760103381192 L -1.8207441152972084,-10.493206891442224 L -1.949374806722251,-10.470073441142453 L -2.077711929471765,-10.445363236294405 L -2.2057361564471267,-10.419079998164035 L -2.333428207670662,-10.39122768491033 L -2.4607688531891476,-10.361810490989216 L -2.5877389159697604,-10.330832846521893 L -2.7143192747880796,-10.298299416627675 L -2.840490867107667,-10.264215100721435 L -2.966234691950814,-10.228585031775777 L -3.091531812760022,-10.191414575548025 L -3.216363360249779,-10.152709329772165 L -3.3407105352481934,-10.112475123315841 L -3.4645546115281,-10.070718015302553 L -3.5878769386271423,-10.027444294199173 L -3.7106589446564766,-9.982660476868924 L -3.832882139097624,-9.93637330758997 L -3.9545281155870695,-9.888589757039746 L -4.075578554688206,-9.839317021245204 L -4.196015226650161,-9.788562520499116 L -4.3158199941531405,-9.736333898242602 L -4.434974815039834,-9.682639019914065 L -4.553461745032502,-9.627485971764672 L -4.671262940435317,-9.57088305964061 L -4.788360660821562,-9.512838807732237 L -4.904737271705256,-9.453361957290396 L -5.020375247196876,-9.392461465309982 L -5.135257172642657,-9.33014650318108 L -5.249365747247199,-9.266426455307778 L -5.3626837866788915,-9.201310917694899 L -5.475194225657811,-9.134809696502899 L -5.586880120525692,-9.066932806571074 L -5.697724651797584,-8.997690469909383 L -5.807711126694793,-8.927093114159026 L -5.916822981658761,-8.85515137102211 L -6.025043784845481,-8.781876074660518 L -6.132357238600053,-8.707278260064367 L -6.238747181911074,-8.631369161390134 L -6.344197592844416,-8.554160210268869 L -6.448692590956066,-8.47566303408461 L -6.552216439683675,-8.395889454223358 L -6.654753548716414,-8.314851484292808 L -6.7562884763428235,-8.23256132831315 L -6.856805931776277,-8.14903137887919 L -6.9562907774577205,-8.064274215294063 L -7.054728031335331,-7.978302601674842 L -7.152102869120746,-7.891129485030314 L -7.248400626521575,-7.802767993311197 L -7.343606801449763,-7.713231433433123 L -7.437707056205561,-7.62253328927267 L -7.5306872196367305,-7.530687219636732 L -7.622533289272669,-7.437707056205562 L -7.713231433433122,-7.343606801449765 L -7.802767993311195,-7.248400626521577 L -7.891129485030312,-7.152102869120748 L -7.97830260167484,-7.054728031335332 L -8.064274215294061,-6.956290777457721 L -8.149031378879188,-6.856805931776279 L -8.23256132831315,-6.756288476342824 L -8.314851484292806,-6.654753548716415 L -8.395889454223356,-6.552216439683677 L -8.47566303408461,-6.448692590956068 L -8.554160210268869,-6.3441975928444165 L -8.631369161390133,-6.238747181911076 L -8.707278260064365,-6.132357238600054 L -8.781876074660516,-6.025043784845484 L -8.855151371022108,-5.916822981658763 L -8.927093114159026,-5.807711126694794 L -8.997690469909381,-5.697724651797585 L -9.066932806571074,-5.586880120525694 L -9.134809696502897,-5.475194225657812 L -9.201310917694899,-5.362683786678893 L -9.266426455307776,-5.249365747247201 L -9.33014650318108,-5.135257172642659 L -9.39246146530998,-5.020375247196878 L -9.453361957290394,-4.904737271705258 L -9.512838807732237,-4.788360660821564 L -9.57088305964061,-4.6712629404353185 L -9.627485971764672,-4.553461745032504 L -9.682639019914063,-4.434974815039836 L -9.736333898242602,-4.315819994153142 L -9.788562520499116,-4.196015226650163 L -9.839317021245204,-4.0755785546882075 L -9.888589757039744,-3.9545281155870717 L -9.93637330758997,-3.832882139097626 L -9.982660476868922,-3.7106589446564806 L -10.02744429419917,-3.5878769386271467 L -10.070718015302552,-3.464554611528104 L -10.112475123315841,-3.3407105352481934 L -10.152709329772165,-3.2163633602497788 L -10.191414575548023,-3.0915318127600244 L -10.228585031775776,-2.9662346919508162 L -10.264215100721435,-2.8404908671076687 L -10.298299416627675,-2.7143192747880813 L -10.330832846521893,-2.5877389159697626 L -10.361810490989216,-2.46076885318915 L -10.391227684910328,-2.333428207670666 L -10.419079998164033,-2.2057361564471307 L -10.445363236294405,-2.0777119294717696 L -10.470073441142453,-1.9493748067222505 L -10.493206891442224,-1.820744115297208 L -10.514760103381192,-1.6918392265056248 L -10.534729831124919,-1.5626795529496034 L -10.553113067305857,-1.433284545600895 L -10.569907043476261,-1.3036736908716542 L -10.585109230525092,-1.1738665076798565 L -10.598717339058897,-1.0438825445098228 L -10.610729319746586,-0.9137413764682877 L -10.62114336362805,-0.7834626023364614 L -10.62995790238659,-0.6530658416185204 L -10.637171608585087,-0.5225707315870014 L -10.642783395865923,-0.39199692432547156 L -10.646792419114576,-0.26136408376901626 L -10.64919807458689,-0.13069188274291807 L -10.65,0.0 L -10.64919807458689,0.13069188274291546 L -10.646792419114576,0.26136408376901366 L -10.642783395865923,0.3919969243254689 L -10.637171608585087,0.5225707315869987 L -10.62995790238659,0.6530658416185179 L -10.62114336362805,0.7834626023364588 L -10.610729319746586,0.9137413764682852 L -10.598717339058897,1.0438825445098203 L -10.585109230525092,1.173866507679854 L -10.569907043476261,1.3036736908716515 L -10.553113067305857,1.4332845456008925 L -10.534729831124919,1.562679552949601 L -10.514760103381192,1.6918392265056221 L -10.493206891442226,1.8207441152972053 L -10.470073441142455,1.9493748067222478 L -10.445363236294405,2.077711929471767 L -10.419079998164035,2.205736156447128 L -10.39122768491033,2.3334282076706634 L -10.361810490989216,2.460768853189147 L -10.330832846521893,2.58773891596976 L -10.298299416627676,2.714319274788079 L -10.264215100721437,2.8404908671076665 L -10.228585031775777,2.9662346919508136 L -10.191414575548025,3.0915318127600218 L -10.152709329772167,3.216363360249776 L -10.112475123315843,3.340710535248191 L -10.070718015302552,3.4645546115281007 L -10.027444294199173,3.587876938627144 L -9.982660476868924,3.7106589446564784 L -9.936373307589971,3.8328821390976233 L -9.888589757039746,3.9545281155870686 L -9.839317021245206,4.075578554688205 L -9.788562520499116,4.196015226650161 L -9.736333898242602,4.3158199941531405 L -9.682639019914065,4.434974815039833 L -9.627485971764672,4.553461745032501 L -9.570883059640611,4.671262940435316 L -9.512838807732239,4.788360660821561 L -9.453361957290396,4.904737271705256 L -9.392461465309982,5.020375247196875 L -9.33014650318108,5.135257172642657 L -9.266426455307778,5.249365747247199 L -9.201310917694899,5.3626837866788915 L -9.134809696502899,5.47519422565781 L -9.066932806571076,5.586880120525692 L -8.997690469909383,5.697724651797582 L -8.927093114159026,5.807711126694792 L -8.85515137102211,5.916822981658761 L -8.78187607466052,6.025043784845481 L -8.707278260064367,6.132357238600053 L -8.631369161390134,6.238747181911074 L -8.554160210268869,6.344197592844414 L -8.47566303408461,6.448692590956066 L -8.395889454223358,6.552216439683675 L -8.314851484292808,6.654753548716414 L -8.23256132831315,6.756288476342823 L -8.14903137887919,6.856805931776277 L -8.064274215294063,6.9562907774577205 L -7.978302601674842,7.05472803133533 L -7.891129485030315,7.152102869120746 L -7.802767993311197,7.248400626521575 L -7.713231433433124,7.343606801449762 L -7.62253328927267,7.437707056205561 L -7.530687219636733,7.5306872196367305 L -7.437707056205563,7.622533289272667 L -7.343606801449765,7.713231433433122 L -7.248400626521577,7.802767993311194 L -7.152102869120749,7.891129485030312 L -7.054728031335332,7.978302601674839 L -6.956290777457726,8.064274215294057 L -6.85680593177628,8.149031378879188 L -6.75628847634283,8.232561328313146 L -6.654753548716416,8.314851484292806 L -6.55221643968368,8.395889454223353 L -6.448692590956068,8.47566303408461 L -6.344197592844413,8.55416021026887 L -6.2387471819110765,8.631369161390133 L -6.1323572386000516,8.707278260064369 L -6.025043784845484,8.781876074660516 L -5.916822981658763,8.855151371022107 L -5.807711126694799,8.927093114159023 L -5.697724651797586,8.99769046990938 L -5.5868801205256995,9.06693280657107 L -5.475194225657812,9.134809696502897 L -5.362683786678897,9.201310917694896 L -5.249365747247202,9.266426455307776 L -5.135257172642655,9.330146503181082 L -5.020375247196878,9.39246146530998 L -4.904737271705255,9.453361957290396 L -4.788360660821564,9.512838807732237 L -4.671262940435319,9.57088305964061 L -4.553461745032508,9.627485971764669 L -4.434974815039836,9.682639019914063 L -4.315819994153148,9.7363338982426 L -4.196015226650164,9.788562520499115 L -4.075578554688212,9.839317021245202 L -3.954528115587072,9.888589757039744 L -3.8328821390976215,9.936373307589971 L -3.710658944656481,9.982660476868922 L -3.5878769386271423,10.027444294199173 L -3.4645546115281043,10.070718015302552 L -3.3407105352481943,10.112475123315841 L -3.216363360249784,10.152709329772163 L -3.0915318127600253,10.191414575548023 L -2.966234691950821,10.228585031775776 L -2.8404908671076696,10.264215100721435 L -2.7143192747880778,10.298299416627676 L -2.587738915969763,10.330832846521893 L -2.460768853189146,10.361810490989216 L -2.3334282076706665,10.391227684910328 L -2.2057361564471267,10.419079998164035 L -2.0777119294717705,10.445363236294403 L -1.9493748067222512,10.470073441142453 L -1.820744115297213,10.493206891442224 L -1.6918392265056252,10.514760103381192 L -1.5626795529496085,10.534729831124917 L -1.4332845456008958,10.553113067305857 L -1.30367369087165,10.569907043476263 L -1.1738665076798573,10.585109230525092 L -1.0438825445098188,10.598717339058897 L -0.9137413764682885,10.610729319746586 L -0.7834626023364574,10.62114336362805 L -0.6530658416185258,10.62995790238659 L -0.5225707315870021,10.637171608585087 L -0.3919969243254769,10.642783395865921 L -0.26136408376901693,10.646792419114576 L -0.13069188274292345,10.64919807458689 L 0.0,10.65 L 0.13069188274291954,10.64919807458689 L 0.26136408376901304,10.646792419114576 L 0.39199692432547295,10.642783395865923 L 0.5225707315869981,10.637171608585087 L 0.6530658416185219,10.62995790238659 L 0.7834626023364534,10.62114336362805 L 0.9137413764682845,10.610729319746586 L 1.043882544509815,10.598717339058897 L 1.1738665076798533,10.585109230525092 L 1.3036736908716462,10.569907043476263 L 1.4332845456008916,10.553113067305857 L 1.5626795529496047,10.534729831124917 L 1.6918392265056215,10.514760103381192 L 1.8207441152972093,10.493206891442224 L 1.9493748067222474,10.470073441142455 L 2.0777119294717665,10.445363236294405 L 2.205736156447123,10.419079998164037 L 2.333428207670663,10.39122768491033 L 2.460768853189142,10.361810490989217 L 2.587738915969759,10.330832846521893 L 2.7143192747880738,10.298299416627676 L 2.840490867107666,10.264215100721437 L 2.9662346919508176,10.228585031775776 L 3.091531812760021,10.191414575548025 L 3.2163633602497796,10.152709329772165 L 3.3407105352481907,10.112475123315843 L 3.4645546115281003,10.070718015302552 L 3.5878769386271387,10.027444294199173 L 3.7106589446564775,9.982660476868924 L 3.832882139097618,9.936373307589971 L 3.954528115587068,9.888589757039746 L 4.075578554688208,9.839317021245202 L 4.19601522665016,9.788562520499116 L 4.315819994153144,9.7363338982426 L 4.4349748150398325,9.682639019914065 L 4.553461745032505,9.627485971764672 L 4.671262940435316,9.570883059640611 L 4.78836066082156,9.512838807732239 L 4.904737271705251,9.453361957290397 L 5.020375247196874,9.392461465309982 L 5.1352571726426515,9.330146503181084 L 5.249365747247198,9.266426455307778 L 5.362683786678895,9.201310917694897 L 5.47519422565781,9.1348096965029 L 5.586880120525696,9.066932806571073 L 5.697724651797582,8.997690469909383 L 5.807711126694795,8.927093114159025 L 5.916822981658759,8.85515137102211 L 6.02504378484548,8.78187607466052 L 6.132357238600048,8.70727826006437 L 6.238747181911073,8.631369161390136 L 6.34419759284441,8.554160210268872 L 6.448692590956065,8.475663034084612 L 6.552216439683678,8.395889454223356 L 6.654753548716412,8.314851484292808 L 6.756288476342826,8.232561328313148 L 6.856805931776276,8.14903137887919 L 6.956290777457722,8.064274215294061 L 7.054728031335326,7.978302601674845 L 7.152102869120745,7.891129485030315 L 7.248400626521572,7.802767993311201 L 7.343606801449762,7.713231433433124 L 7.437707056205556,7.622533289272673 L 7.53068721963673,7.530687219636733 L 7.6225332892726705,7.43770705620556 L 7.71323143343312,7.3436068014497655 L 7.802767993311198,7.248400626521575 L 7.891129485030312,7.152102869120749 L 7.978302601674843,7.05472803133533 L 8.064274215294057,6.956290777457726 L 8.149031378879187,6.85680593177628 L 8.232561328313146,6.75628847634283 L 8.314851484292806,6.654753548716416 L 8.395889454223353,6.552216439683682 L 8.475663034084608,6.448692590956068 L 8.55416021026887,6.344197592844414 L 8.631369161390133,6.2387471819110765 L 8.707278260064367,6.1323572386000516 L 8.781876074660516,6.025043784845485 L 8.855151371022107,5.916822981658763 L 8.927093114159023,5.807711126694799 L 8.99769046990938,5.697724651797586 L 9.06693280657107,5.5868801205256995 L 9.134809696502897,5.475194225657813 L 9.201310917694896,5.362683786678899 L 9.266426455307776,5.249365747247203 L 9.330146503181082,5.135257172642656 L 9.39246146530998,5.020375247196878 L 9.453361957290396,4.9047372717052555 L 9.512838807732237,4.7883606608215645 L 9.57088305964061,4.671262940435319 L 9.627485971764669,4.553461745032509 L 9.682639019914063,4.434974815039837 L 9.7363338982426,4.315819994153148 L 9.788562520499115,4.1960152266501645 L 9.839317021245202,4.075578554688213 L 9.888589757039744,3.954528115587073 L 9.936373307589971,3.8328821390976224 L 9.982660476868922,3.710658944656482 L 10.027444294199173,3.587876938627143 L 10.070718015302552,3.464554611528105 L 10.112475123315841,3.3407105352481947 L 10.152709329772163,3.2163633602497845 L 10.191414575548023,3.0915318127600258 L 10.228585031775776,2.9662346919508216 L 10.264215100721435,2.84049086710767 L 10.298299416627676,2.7143192747880787 L 10.330832846521893,2.5877389159697635 L 10.361810490989216,2.4607688531891463 L 10.391227684910328,2.3334282076706674 L 10.419079998164035,2.2057361564471276 L 10.445363236294403,2.077711929471771 L 10.470073441142453,1.9493748067222518 L 10.493206891442224,1.820744115297214 L 10.514760103381192,1.691839226505626 L 10.534729831124917,1.5626795529496094 L 10.553113067305857,1.4332845456008965 L 10.569907043476261,1.3036736908716509 L 10.585109230525092,1.1738665076798578 L 10.598717339058897,1.0438825445098194 L 10.610729319746586,0.913741376468289 L 10.62114336362805,0.7834626023364579 L 10.62995790238659,0.6530658416185264 L 10.637171608585087,0.5225707315870027 L 10.642783395865921,0.39199692432547756 L 10.646792419114576,0.2613640837690176 L 10.64919807458689,0.1306918827429241 L 10.65,0.0 L 10.64919807458689,-0.1306918827429172 z M 8.349371260356858,0.10246734468576679 L 8.347485136113306,0.20491925816631898 L 8.34434191131272,0.30734031156035096 L 8.339942059313191,0.40971508063394113 L 8.334286242716248,0.5120281481234457 L 8.327375313267064,0.614264106057223 L 8.319210311726197,0.7164075580760765 L 8.309792467712846,0.8184431217518303 L 8.299123199519675,0.9203554309039262 L 8.28720411389923,1.022129137913454 L 8.274037005821965,1.1237489160345058 L 8.259623858205922,1.2251994617022761 L 8.243966841618118,1.3264654968377445 L 8.22706831394766,1.42753177114852 L 8.208930820050657,1.5283830644254277 L 8.189557091366975,1.6290041888346751 L 8.168950045508891,1.729379991205025 L 8.147112785821713,1.829495355309866 L 8.12404860091643,1.9293352041436032 L 8.099760964174443,2.0288845021922564 L 8.074253533224518,2.1281282576976954 L 8.047530149391925,2.2270515249154035 L 8.019594837119975,2.3256394063651986 L 7.990451803363945,2.423877055074762 L 7.960105436957519,2.521749676815559 L 7.928560307951858,2.6192425323307447 L 7.8958211669273535,2.7163409395548994 L 7.8618929442782255,2.8130302758250374 L 7.826780749470001,2.909295980082782 L 7.790489870270072,3.0051235550671502 L 7.753025771951351,3.100498569497846 L 7.714394096469244,3.1954066602485054 L 7.674600661611983,3.2898335345097536 L 7.633651460124481,3.3837649719416705 L 7.591552658805863,3.477186826815272 L 7.548310597580751,3.57008503014286 L 7.503931788544516,3.6624455917967067 L 7.4584229149825525,3.754254602615969 L 7.411790830363832,3.8454982365013044 L 7.364042557308764,3.9361627524970833 L 7.315185286531647,4.026234496860674 L 7.265226375757741,4.115699905118699 L 7.2141733486152475,4.204545504109747 L 7.162033893502272,4.292757914013404 L 7.108815862428963,4.38032385036522 L 7.054527269835055,4.467230126057263 L 6.999176291382897,4.5534636533240915 L 6.942771262726254,4.639011445713679 L 6.885320678254961,4.723860620043174 L 6.8268331898157255,4.807998398339008 L 6.767317605409167,4.8914121097612675 L 6.706782887863388,4.974089192511818 L 6.645238153484177,5.05601719572612 L 6.58269267068216,5.13718378134824 L 6.5191558585769895,5.217576725988928 L 6.454637285578852,5.297183922766444 L 6.389146667947532,5.37599338312976 L 6.322693868329145,5.453993238664039 L 6.255288894270887,5.531171742877936 L 6.186941896713908,5.607517272972607 L 6.117663168464649,5.6830183315920335 L 6.047463142644748,5.757663548554512 L 5.976352391119888,5.831441682564923 L 5.904341622907672,5.904341622907674 L 5.83144168256492,5.97635239111989 L 5.757663548554509,6.047463142644751 L 5.683018331592031,6.1176631684646505 L 5.607517272972604,6.186941896713909 L 5.531171742877932,6.255288894270889 L 5.453993238664037,6.322693868329147 L 5.3759933831297575,6.389146667947535 L 5.2971839227664415,6.454637285578854 L 5.217576725988925,6.519155858576991 L 5.137183781348237,6.582692670682162 L 5.056017195726118,6.64523815348418 L 4.974089192511816,6.7067828878633895 L 4.891412109761265,6.767317605409168 L 4.807998398339006,6.826833189815728 L 4.723860620043171,6.8853206782549625 L 4.639011445713677,6.942771262726255 L 4.553463653324089,6.9991762913828985 L 4.46723012605726,7.054527269835057 L 4.380323850365217,7.108815862428965 L 4.292757914013401,7.162033893502274 L 4.204545504109745,7.214173348615249 L 4.115699905118696,7.2652263757577416 L 4.026234496860671,7.31518528653165 L 3.9361627524970806,7.364042557308766 L 3.845498236501301,7.411790830363834 L 3.7542546026159656,7.458422914982554 L 3.662445591796703,7.503931788544517 L 3.5700850301428564,7.548310597580753 L 3.4771868268152684,7.591552658805864 L 3.3837649719416674,7.633651460124482 L 3.2898335345097505,7.674600661611985 L 3.1954066602485023,7.714394096469245 L 3.1004985694978426,7.753025771951352 L 3.005123555067147,7.790489870270073 L 2.9092959800827787,7.826780749470002 L 2.8130302758250343,7.861892944278226 L 2.716340939554896,7.895821166927354 L 2.6192425323307416,7.928560307951859 L 2.5217496768155554,7.96010543695752 L 2.4238770550747586,7.990451803363946 L 2.3256394063651955,8.019594837119977 L 2.2270515249154004,8.047530149391925 L 2.128128257697692,8.074253533224518 L 2.028884502192253,8.099760964174443 L 1.9293352041435996,8.12404860091643 L 1.8294953553098627,8.147112785821715 L 1.7293799912050216,8.168950045508893 L 1.6290041888346716,8.189557091366975 L 1.5283830644254242,8.208930820050659 L 1.4275317711485163,8.22706831394766 L 1.326465496837741,8.24396684161812 L 1.2251994617022723,8.259623858205922 L 1.123748916034502,8.274037005821965 L 1.0221291379134505,8.28720411389923 L 0.9203554309039227,8.299123199519675 L 0.8184431217518269,8.309792467712846 L 0.7164075580760729,8.319210311726197 L 0.6142641060572194,8.327375313267064 L 0.5120281481234421,8.334286242716248 L 0.4097150806339375,8.339942059313191 L 0.3073403115603474,8.34434191131272 L 0.2049192581663154,8.347485136113306 L 0.10246734468576323,8.349371260356858 L 0.0,8.350000000000001 L -0.10246734468576629,8.349371260356858 L -0.20491925816631848,8.347485136113306 L -0.30734031156035047,8.34434191131272 L -0.40971508063394063,8.339942059313191 L -0.5120281481234452,8.334286242716248 L -0.6142641060572225,8.327375313267064 L -0.716407558076076,8.319210311726197 L -0.8184431217518299,8.309792467712846 L -0.9203554309039258,8.299123199519675 L -1.0221291379134534,8.28720411389923 L -1.1237489160345053,8.274037005821965 L -1.2251994617022754,8.259623858205922 L -1.326465496837744,8.243966841618118 L -1.4275317711485194,8.22706831394766 L -1.5283830644254273,8.208930820050657 L -1.6290041888346747,8.189557091366975 L -1.7293799912050245,8.168950045508891 L -1.8294953553098656,8.147112785821713 L -1.9293352041436027,8.12404860091643 L -2.028884502192256,8.099760964174443 L -2.128128257697695,8.074253533224518 L -2.227051524915403,8.047530149391925 L -2.325639406365198,8.019594837119975 L -2.4238770550747617,7.990451803363945 L -2.5217496768155585,7.9601054369575195 L -2.619242532330744,7.928560307951858 L -2.716340939554899,7.8958211669273535 L -2.813030275825037,7.8618929442782255 L -2.9092959800827813,7.826780749470001 L -3.00512355506715,7.790489870270072 L -3.1004985694978457,7.753025771951351 L -3.195406660248505,7.714394096469244 L -3.289833534509753,7.674600661611983 L -3.38376497194167,7.633651460124481 L -3.4771868268152715,7.591552658805863 L -3.570085030142859,7.548310597580751 L -3.6624455917967063,7.503931788544516 L -3.7542546026159687,7.458422914982553 L -3.845498236501304,7.411790830363833 L -3.936162752497083,7.364042557308765 L -4.026234496860674,7.315185286531647 L -4.115699905118698,7.265226375757741 L -4.204545504109746,7.214173348615248 L -4.292757914013403,7.162033893502272 L -4.38032385036522,7.108815862428963 L -4.467230126057263,7.054527269835055 L -4.5534636533240915,6.999176291382898 L -4.639011445713679,6.942771262726254 L -4.723860620043173,6.885320678254961 L -4.807998398339008,6.826833189815726 L -4.8914121097612675,6.767317605409167 L -4.974089192511817,6.706782887863388 L -5.05601719572612,6.645238153484178 L -5.137183781348239,6.58269267068216 L -5.217576725988928,6.5191558585769895 L -5.297183922766444,6.454637285578852 L -5.37599338312976,6.389146667947533 L -5.453993238664039,6.322693868329145 L -5.5311717428779374,6.255288894270884 L -5.607517272972607,6.186941896713908 L -5.683018331592035,6.117663168464646 L -5.757663548554511,6.047463142644749 L -5.831441682564925,5.976352391119885 L -5.904341622907674,5.904341622907673 L -5.976352391119887,5.831441682564924 L -6.047463142644751,5.757663548554509 L -6.117663168464648,5.6830183315920335 L -6.186941896713909,5.607517272972605 L -6.255288894270886,5.531171742877936 L -6.322693868329149,5.453993238664035 L -6.389146667947534,5.375993383129758 L -6.454637285578856,5.297183922766439 L -6.519155858576991,5.217576725988926 L -6.582692670682164,5.1371837813482335 L -6.645238153484179,5.056017195726119 L -6.706782887863387,4.974089192511818 L -6.7673176054091675,4.891412109761266 L -6.8268331898157255,4.807998398339009 L -6.8853206782549625,4.723860620043172 L -6.942771262726255,4.6390114457136775 L -6.9991762913829,4.553463653324086 L -7.054527269835057,4.46723012605726 L -7.108815862428966,4.380323850365214 L -7.162033893502273,4.292757914013401 L -7.214173348615251,4.204545504109742 L -7.2652263757577416,4.115699905118697 L -7.315185286531646,4.026234496860675 L -7.364042557308766,3.936162752497081 L -7.411790830363832,3.8454982365013053 L -7.458422914982554,3.754254602615966 L -7.503931788544517,3.6624455917967036 L -7.5483105975807545,3.5700850301428537 L -7.591552658805864,3.477186826815269 L -7.633651460124483,3.3837649719416647 L -7.674600661611984,3.289833534509751 L -7.714394096469246,3.195406660248499 L -7.753025771951352,3.100498569497843 L -7.790489870270072,3.005123555067151 L -7.826780749470002,2.909295980082779 L -7.8618929442782255,2.8130302758250383 L -7.895821166927354,2.7163409395548963 L -7.928560307951859,2.619242532330742 L -7.960105436957521,2.5217496768155527 L -7.990451803363946,2.423877055074759 L -8.019594837119977,2.325639406365192 L -8.047530149391925,2.227051524915401 L -8.074253533224518,2.1281282576976963 L -8.099760964174443,2.0288845021922532 L -8.12404860091643,1.9293352041436038 L -8.147112785821715,1.8294953553098632 L -8.168950045508891,1.7293799912050256 L -8.189557091366975,1.629004188834672 L -8.208930820050659,1.5283830644254246 L -8.227068313947662,1.4275317711485134 L -8.24396684161812,1.3264654968377414 L -8.259623858205924,1.2251994617022695 L -8.274037005821965,1.1237489160345027 L -8.28720411389923,1.0221291379134545 L -8.299123199519675,0.9203554309039232 L -8.309792467712846,0.8184431217518311 L -8.319210311726197,0.7164075580760735 L -8.327375313267064,0.6142641060572237 L -8.334286242716248,0.5120281481234389 L -8.339942059313191,0.4097150806339381 L -8.34434191131272,0.3073403115603442 L -8.347485136113306,0.2049192581663159 L -8.349371260356858,0.10246734468576003 L -8.350000000000001,0.0 L -8.349371260356858,-0.10246734468576207 L -8.347485136113306,-0.20491925816631795 L -8.34434191131272,-0.3073403115603463 L -8.339942059313191,-0.4097150806339401 L -8.334286242716248,-0.512028148123441 L -8.327375313267064,-0.6142641060572257 L -8.319210311726197,-0.7164075580760755 L -8.309792467712844,-0.818443121751833 L -8.299123199519675,-0.9203554309039252 L -8.28720411389923,-1.0221291379134567 L -8.274037005821965,-1.1237489160345047 L -8.259623858205924,-1.2251994617022712 L -8.24396684161812,-1.3264654968377436 L -8.22706831394766,-1.4275317711485154 L -8.208930820050657,-1.5283830644254268 L -8.189557091366975,-1.6290041888346742 L -8.168950045508891,-1.7293799912050276 L -8.147112785821713,-1.8294953553098652 L -8.124048600916428,-1.929335204143606 L -8.099760964174443,-2.0288845021922555 L -8.074253533224516,-2.128128257697698 L -8.047530149391925,-2.2270515249154026 L -8.019594837119977,-2.325639406365194 L -7.990451803363945,-2.4238770550747613 L -7.96010543695752,-2.5217496768155545 L -7.928560307951858,-2.6192425323307438 L -7.8958211669273535,-2.7163409395548985 L -7.861892944278224,-2.81303027582504 L -7.826780749470001,-2.909295980082781 L -7.790489870270071,-3.005123555067153 L -7.753025771951351,-3.1004985694978453 L -7.7143940964692455,-3.195406660248501 L -7.674600661611984,-3.2898335345097527 L -7.633651460124483,-3.3837649719416665 L -7.591552658805863,-3.477186826815271 L -7.548310597580753,-3.5700850301428555 L -7.5039317885445165,-3.662445591796706 L -7.458422914982553,-3.754254602615968 L -7.411790830363831,-3.8454982365013066 L -7.364042557308765,-3.936162752497083 L -7.315185286531645,-4.026234496860677 L -7.265226375757741,-4.115699905118698 L -7.21417334861525,-4.204545504109744 L -7.162033893502272,-4.292757914013403 L -7.1088158624289655,-4.380323850365216 L -7.054527269835056,-4.467230126057262 L -6.999176291382899,-4.553463653324088 L -6.9427712627262546,-4.639011445713679 L -6.885320678254961,-4.723860620043173 L -6.826833189815725,-4.80799839833901 L -6.767317605409167,-4.891412109761267 L -6.706782887863385,-4.97408919251182 L -6.645238153484178,-5.05601719572612 L -6.582692670682163,-5.137183781348236 L -6.51915585857699,-5.217576725988927 L -6.454637285578855,-5.297183922766441 L -6.389146667947533,-5.375993383129759 L -6.322693868329147,-5.453993238664036 L -6.255288894270885,-5.5311717428779374 L -6.186941896713908,-5.607517272972606 L -6.117663168464647,-5.683018331592035 L -6.047463142644749,-5.757663548554511 L -5.976352391119886,-5.8314416825649245 L -5.904341622907673,-5.9043416229076735 L -5.831441682564924,-5.976352391119887 L -5.75766354855451,-6.04746314264475 L -5.6830183315920335,-6.117663168464648 L -5.607517272972605,-6.1869418967139085 L -5.531171742877937,-6.255288894270886 L -5.453993238664035,-6.322693868329148 L -5.375993383129758,-6.389146667947534 L -5.29718392276644,-6.454637285578856 L -5.217576725988926,-6.519155858576991 L -5.1371837813482335,-6.582692670682164 L -5.056017195726119,-6.645238153484179 L -4.974089192511819,-6.706782887863387 L -4.891412109761266,-6.7673176054091675 L -4.807998398339009,-6.8268331898157255 L -4.723860620043172,-6.885320678254962 L -4.6390114457136775,-6.942771262726255 L -4.553463653324087,-6.9991762913829 L -4.467230126057261,-7.054527269835057 L -4.380323850365214,-7.1088158624289655 L -4.292757914013402,-7.162033893502273 L -4.204545504109742,-7.214173348615251 L -4.115699905118697,-7.2652263757577416 L -4.026234496860676,-7.315185286531646 L -3.9361627524970815,-7.364042557308766 L -3.8454982365013053,-7.411790830363832 L -3.7542546026159664,-7.458422914982553 L -3.662445591796704,-7.5039317885445165 L -3.570085030142854,-7.5483105975807545 L -3.4771868268152692,-7.591552658805864 L -3.383764971941665,-7.633651460124483 L -3.2898335345097514,-7.674600661611984 L -3.1954066602484996,-7.7143940964692455 L -3.1004985694978435,-7.753025771951352 L -3.0051235550671516,-7.790489870270071 L -2.909295980082778,-7.826780749470002 L -2.813030275825037,-7.8618929442782255 L -2.7163409395548954,-7.895821166927355 L -2.6192425323307438,-7.928560307951858 L -2.521749676815555,-7.96010543695752 L -2.4238770550747595,-7.990451803363946 L -2.3256394063651924,-8.019594837119977 L -2.2270515249154013,-8.047530149391925 L -2.1281282576976968,-8.074253533224516 L -2.0288845021922537,-8.099760964174443 L -1.9293352041436043,-8.12404860091643 L -1.829495355309862,-8.147112785821715 L -1.7293799912050243,-8.168950045508891 L -1.6290041888346707,-8.189557091366975 L -1.528383064425427,-8.208930820050657 L -1.4275317711485156,-8.22706831394766 L -1.3264654968377418,-8.24396684161812 L -1.22519946170227,-8.259623858205924 L -1.1237489160345033,-8.274037005821965 L -1.0221291379134552,-8.28720411389923 L -0.9203554309039237,-8.299123199519675 L -0.8184431217518315,-8.309792467712846 L -0.716407558076072,-8.319210311726197 L -0.6142641060572223,-8.327375313267064 L -0.5120281481234413,-8.334286242716248 L -0.4097150806339404,-8.339942059313191 L -0.3073403115603466,-8.34434191131272 L -0.20491925816631643,-8.347485136113306 L -0.10246734468576053,-8.349371260356858 L 0.0,-8.350000000000001 L 0.10246734468576156,-8.349371260356858 L 0.20491925816631743,-8.347485136113306 L 0.30734031156034763,-8.34434191131272 L 0.4097150806339414,-8.339942059313191 L 0.5120281481234423,-8.334286242716248 L 0.6142641060572234,-8.327375313267064 L 0.7164075580760731,-8.319210311726197 L 0.8184431217518325,-8.309792467712844 L 0.9203554309039248,-8.299123199519675 L 1.022129137913456,-8.28720411389923 L 1.1237489160345042,-8.274037005821965 L 1.2251994617022708,-8.259623858205924 L 1.3264654968377427,-8.24396684161812 L 1.4275317711485165,-8.22706831394766 L 1.5283830644254282,-8.208930820050657 L 1.6290041888346718,-8.189557091366975 L 1.7293799912050252,-8.168950045508891 L 1.829495355309863,-8.147112785821715 L 1.9293352041436054,-8.124048600916428 L 2.0288845021922546,-8.099760964174443 L 2.1281282576976976,-8.074253533224516 L 2.227051524915402,-8.047530149391925 L 2.3256394063651933,-8.019594837119977 L 2.423877055074761,-7.990451803363946 L 2.521749676815556,-7.9601054369575195 L 2.619242532330745,-7.928560307951858 L 2.7163409395548963,-7.895821166927354 L 2.813030275825038,-7.8618929442782255 L 2.9092959800827787,-7.826780749470002 L 3.0051235550671525,-7.790489870270071 L 3.1004985694978444,-7.753025771951351 L 3.1954066602485005,-7.7143940964692455 L 3.2898335345097522,-7.674600661611984 L 3.383764971941666,-7.633651460124483 L 3.4771868268152724,-7.591552658805862 L 3.570085030142857,-7.548310597580753 L 3.662445591796707,-7.503931788544516 L 3.7542546026159656,-7.458422914982554 L 3.845498236501305,-7.411790830363832 L 3.9361627524970824,-7.364042557308765 L 4.026234496860677,-7.315185286531646 L 4.1156999051186975,-7.265226375757741 L 4.204545504109743,-7.21417334861525 L 4.292757914013402,-7.162033893502273 L 4.380323850365215,-7.1088158624289655 L 4.467230126057263,-7.054527269835055 L 4.553463653324089,-6.9991762913828985 L 4.63901144571368,-6.942771262726254 L 4.723860620043172,-6.8853206782549625 L 4.807998398339009,-6.8268331898157255 L 4.891412109761266,-6.7673176054091675 L 4.97408919251182,-6.706782887863385 L 5.0560171957261195,-6.645238153484178 L 5.137183781348234,-6.582692670682163 L 5.217576725988928,-6.5191558585769895 L 5.297183922766441,-6.454637285578855 L 5.37599338312976,-6.389146667947533 L 5.453993238664037,-6.3226938683291465 L 5.531171742877936,-6.255288894270886 L 5.607517272972604,-6.186941896713909 L 5.683018331592034,-6.117663168464648 L 5.75766354855451,-6.04746314264475 L 5.8314416825649245,-5.976352391119886 L 5.9043416229076735,-5.904341622907673 L 5.976352391119886,-5.8314416825649245 L 6.047463142644751,-5.757663548554509 L 6.117663168464648,-5.6830183315920335 L 6.186941896713909,-5.607517272972604 L 6.255288894270887,-5.531171742877936 L 6.322693868329147,-5.453993238664037 L 6.389146667947533,-5.375993383129759 L 6.454637285578855,-5.297183922766441 L 6.51915585857699,-5.217576725988927 L 6.582692670682164,-5.137183781348234 L 6.645238153484179,-5.0560171957261195 L 6.706782887863387,-4.974089192511819 L 6.7673176054091675,-4.891412109761266 L 6.8268331898157255,-4.807998398339009 L 6.8853206782549625,-4.723860620043171 L 6.942771262726254,-4.639011445713679 L 6.999176291382899,-4.553463653324089 L 7.054527269835056,-4.467230126057262 L 7.1088158624289655,-4.380323850365216 L 7.162033893502273,-4.292757914013402 L 7.214173348615251,-4.204545504109743 L 7.2652263757577416,-4.1156999051186975 L 7.315185286531646,-4.026234496860676 L 7.364042557308766,-3.936162752497081 L 7.411790830363832,-3.845498236501305 L 7.458422914982554,-3.754254602615965 L 7.503931788544516,-3.6624455917967067 L 7.548310597580753,-3.570085030142856 L 7.591552658805863,-3.477186826815271 L 7.633651460124483,-3.383764971941666 L 7.674600661611984,-3.2898335345097522 L 7.7143940964692455,-3.1954066602485 L 7.753025771951352,-3.100498569497844 L 7.790489870270072,-3.005123555067151 L 7.826780749470002,-2.909295980082779 L 7.8618929442782255,-2.813030275825038 L 7.895821166927354,-2.716340939554896 L 7.928560307951858,-2.6192425323307447 L 7.96010543695752,-2.521749676815555 L 7.990451803363945,-2.423877055074761 L 8.019594837119977,-2.3256394063651933 L 8.047530149391925,-2.2270515249154017 L 8.074253533224516,-2.128128257697697 L 8.099760964174443,-2.0288845021922537 L 8.12404860091643,-1.929335204143604 L 8.147112785821715,-1.8294953553098632 L 8.168950045508891,-1.7293799912050252 L 8.189557091366975,-1.6290041888346711 L 8.208930820050657,-1.5283830644254273 L 8.22706831394766,-1.4275317711485154 L 8.24396684161812,-1.3264654968377434 L 8.259623858205924,-1.2251994617022708 L 8.274037005821965,-1.1237489160345038 L 8.28720411389923,-1.0221291379134554 L 8.299123199519675,-0.9203554309039237 L 8.309792467712846,-0.8184431217518312 L 8.319210311726197,-0.7164075580760733 L 8.327375313267064,-0.6142641060572231 L 8.334286242716248,-0.5120281481234417 L 8.339942059313191,-0.4097150806339405 L 8.34434191131272,-0.3073403115603463 L 8.347485136113306,-0.20491925816631765 L 8.349371260356858,-0.1024673446857614 L 8.350000000000001,0.0 L 8.349371260356858,0.10246734468576679 z" /></g></svg>